<?xml version="1.0" encoding="UTF-8" standalone="no"?>
<!-- Created with Inkscape (http://www.inkscape.org/) -->

<svg
   version="1.1"
   id="svg1"
   width="416.99133"
   height="353.75732"
   viewBox="0 0 416.99133 353.75733"
   xmlns="http://www.w3.org/2000/svg"
   xmlns:svg="http://www.w3.org/2000/svg">
  <defs
     id="defs1" />
  <g
     id="g2"
     transform="matrix(1.000463,0,0,1,-186.11013,-164.61019)">
    <path
       style="display:inline;fill:#000000;fill-opacity:1;stroke-width:1.2065"
       d="m 220.90972,517.70331 c -3.4936,-0.4017 -9.03387,-7.55784 -7.61852,-9.84049 0.50954,-0.82181 14.90431,-1.22652 116.68971,-1.22652 150.8706,0 176.1103,-0.53021 203.06156,-4.26578 6.8858,-0.9544 12.96644,-1.46004 13.51253,-1.12362 0.54609,0.3364 0.32877,2.90625 -0.48293,5.71075 -1.9676,6.79828 -4.34414,7.47798 -32.18525,9.20509 -19.9192,1.23569 -283.43068,2.63827 -292.9771,1.54057 z m 335.91182,-0.13447 c -1.99395,-0.45532 -3.53861,-1.33976 -3.43258,-1.96543 0.10601,-0.62568 0.83593,-6.53626 1.62198,-13.13465 2.812,-23.6046 12.70366,-37.7733 23.37816,-60.66471 5.74285,-12.31551 25.71379,-36.07447 24.3684,-24.66588 -0.76286,6.46901 1.51104,10.20779 -4.50124,18.05366 -10.44232,13.62696 -13.24758,19.143 -18.30229,29.64252 -5.60547,11.64361 -11.92056,32.82783 -13.57948,45.55297 -1.08572,8.32818 -1.88853,8.9317 -9.55295,7.18152 z M 277.95718,492.20975 c -53.17031,-0.47401 -71.34542,-1.00158 -73.31995,-2.12829 -3.57198,-2.03826 -7.78104,-7.54919 -6.87809,-9.00547 0.48079,-0.7754 17.54673,-0.90992 117.17194,-0.38838 159.59534,0.8355 183.33637,0.3759 215.86362,-4.17877 8.97278,-1.25642 18.08151,-2.6481 20.24163,-3.09263 4.47919,-0.92178 4.71226,-0.26439 2.10848,5.94713 -2.56784,6.1258 -5.64397,7.66919 -19.35352,9.71028 -29.03223,4.32235 -51.86769,4.95447 -255.83411,3.13613 z m 98.039,-42.93115 c -0.54112,-1.15937 -0.63643,-23.31626 -0.54942,-32.13266 l 0.43445,-44.02472 5.03861,0.36566 5.03862,0.36566 0.80047,34.02271 c 0.18613,7.91144 1.21751,39.16739 0.27869,41.60596 -1.06415,2.76414 -9.73093,2.6051 -11.04142,-0.20261 z m 0.61235,-188.16667 c -0.0458,-1.38757 -0.90182,-4.00964 -0.6493,-19.99606 l 0.33156,-10.99027 5.13594,-0.3704 5.13593,-0.37039 v 12.35329 l 0.25335,29.85988 -4.54879,-0.93057 c -2.16012,-0.01 -5.37911,-1.08429 -5.37911,-1.08429 z m 33.62968,-35.81378 c -1.81872,-0.72683 -23.49882,-4.34507 -39.51616,-5.94725 -28.18229,-2.81901 -25.47348,-3.24101 -23.04621,-8.7428 2.51058,-5.69061 4.53245,-4.22488 11.35251,-3.34718 48.35174,6.2305 60.27328,8.85111 60.27328,13.24939 0,3.10291 -5.7194,6.12424 -9.06342,4.78784 z m -32.58703,-22.12494 c -1.71764,-1.71208 -1.76671,-4.45807 -1.96461,-10.75623 -0.75569,-24.04942 2.54813,-23.7732 5.87068,-23.7732 3.27266,0 5.31976,0.91194 4.72238,23.57149 l -0.32119,12.18314 -3.17133,0.36652 c -1.75436,0.20276 -4.04914,-0.50842 -5.13593,-1.59172 z m -53.14214,-18.83078 c -4.42154,-1.91739 -13.70628,-7.04522 -13.70628,-10.42709 0,-2.82051 -0.21041,-2.82328 6.21243,0.0816 9.7389,4.40484 20.7592,2.59102 32.45443,-5.34162 5.69837,-3.86509 7.32454,-4.41454 11.43794,-3.8646 6.94812,0.92892 8.10462,1.18843 7.17377,12.01568 -0.42884,4.98808 -1.1204,5.40107 -1.53678,5.80665 -0.4164,0.40557 -4.69705,0.17036 -9.51258,-0.52271 -7.8277,-1.1266 -9.62048,-0.97951 -16.91837,1.38799 -9.39805,3.0488 -10.43401,3.10617 -15.60456,0.86398 z m -58.16309,281.79864 c -53.17031,-0.47401 -71.34542,-1.00158 -73.31995,-2.12829 -3.57198,-2.03826 -7.78104,-7.54919 -6.87809,-9.00547 0.48079,-0.7754 17.54673,-0.90992 117.17194,-0.38838 159.59534,0.8355 183.33637,0.3759 215.86362,-4.17877 8.97278,-1.25642 40.4489,-7.84697 42.60902,-8.2915 4.47919,-0.92178 -0.0147,6.7325 -4.89545,11.37204 -5.7309,5.44768 -21.00743,7.44315 -34.71698,9.48424 -29.03223,4.32235 -51.86769,4.95447 -255.83411,3.13613 z m 190.84616,-78.56849 c -6.35303,-6.48504 -24.83337,-16.41621 -36.40938,-19.56611 -7.91424,-2.1535 -12.96026,-2.62597 -28.35836,-2.65529 -16.5682,-0.0316 -20.12644,0.3369 -30.81561,3.19077 -6.64651,1.77452 -18.27711,6.22965 -25.84578,9.90028 -7.56868,3.67063 -14.02579,6.41016 -14.34917,6.08784 -0.32336,-0.32231 0.54036,-2.49214 1.91938,-4.82183 12.882,-21.76268 16.58227,-50.97339 9.33761,-73.71309 -2.91976,-9.16461 -14.35399,-27.44561 -20.26988,-32.40737 -2.91663,-2.44625 -3.89087,-2.66382 -7.03529,-1.57121 -10.13591,3.52194 -16.59143,-8.0052 -7.1954,-12.84833 3.24227,-1.67122 3.68288,-1.59577 7.01853,1.20191 3.77092,3.16274 21.54741,7.34236 53.39886,12.55516 8.30813,1.3597 19.72803,3.2626 25.37756,4.22865 5.64954,0.96605 20.81402,3.42737 33.69885,5.4696 12.88484,2.04223 24.07488,4.10539 24.86676,4.58481 0.79189,0.47941 4.16324,3.89567 7.4919,7.59166 12.5053,13.88535 18.08096,35.92813 17.01696,67.27466 -0.56792,16.73084 -2.52113,30.19829 -4.37975,30.19829 -0.47468,0 -2.9352,-2.1152 -5.46779,-4.7004 z"
       id="path4" />
  </g>
</svg>
