<?xml version="1.0" encoding="UTF-8" standalone="no"?>
<!-- Created with Inkscape (http://www.inkscape.org/) -->

<svg
   version="1.1"
   id="svg1"
   width="550.49902"
   height="121.56949"
   viewBox="0 0 550.49902 121.56949"
   xml:space="preserve"
   xmlns="http://www.w3.org/2000/svg"
   xmlns:svg="http://www.w3.org/2000/svg"><defs
     id="defs1" /><g
     id="Logo"
     transform="matrix(0.31380256,0,0,0.31365731,-10.906462,-33.224667)"><path
       style="fill:#5b2333;fill-opacity:1;stroke-width:3.71082"
       d="m 93.93141,488.95731 c -38.367,-10.35255 -59.1756,-33.98801 -59.1756,-67.21512 0,-33.26621 30.2741,-74.22854 61.857,-83.6954 13.4103,-4.01971 14.7937,-5.80233 21.0848,-27.16724 7.8765,-26.75068 33.3658,-79.37441 50.8943,-105.07375 6.7551,-9.90382 22.1611,-28.36226 34.2364,-41.01882 l 21.9543,-23.01195 -14.3219,3.88617 c -35.9306,9.74962 -83.4457,43.886 -105.2809,75.63738 -6.1026,8.87415 -13.2899,24.7117 -15.9713,35.1946 -4.2964,16.79509 -5.4727,18.34009 -9.9005,13.00249 -8.8633,-10.68484 -9.2039,-43.26024 -0.6545,-62.59685 16.8766,-38.17028 62.7195,-74.0666 117.4854,-91.9945 33.913,-11.10164 96.4341,-12.06853 129.2913,-1.99947 31.0042,9.50111 50.7386,28.69072 53.3512,51.87789 4.1696,37.0096 -23.901,75.78135 -72.463,100.08716 l -25.5546,12.79021 12.0917,4.37445 c 30.0683,10.8779 46.4311,43.89552 38.9796,78.65599 -12.4722,58.18329 -71.3596,111.03305 -142.3883,127.78929 -27.6189,6.5156 -72.3095,6.739 -95.5154,0.47747 z m 69.8987,-43.34055 c 38.7076,-8.93272 74.1868,-36.09194 89.3732,-68.41456 11.6911,-24.88369 10.7889,-53.58669 -2.1693,-68.99358 -12.3864,-14.72761 -29.1989,-22.05016 -50.6255,-22.05016 -16.2784,0 -16.3977,0.0957 -20.5237,16.49032 -2.283,9.06969 -4.1508,20.89416 -4.1508,26.27667 0,9.04517 -0.913,9.60965 -12.0573,7.45296 -11.4063,-2.2074 -11.2365,-1.94609 3.1465,4.83881 13.3219,6.28431 23.0031,17.44849 18.7878,21.66575 -0.7854,0.78566 -6.2332,-0.39933 -12.1064,-2.63331 -20.9714,-7.97707 -59.5267,6.56863 -72.1016,27.2018 -18.2521,29.9488 1.0359,60.34409 39.0863,61.59543 4.081,0.13438 14.5846,-1.40935 23.3408,-3.43013 z m 76.4576,-188.43328 c 27.6024,-12.92285 48.0796,-30.19042 62.2357,-52.4808 19.8214,-31.21171 11.3582,-55.18608 -22.1383,-62.71395 l -15.9233,-3.57846 -18.11,25.79999 c -17.9723,25.60306 -48.7082,82.21442 -53.9158,99.30497 -2.5982,8.52596 -2.1257,8.81053 11.0778,6.66696 7.5854,-1.23154 24.1336,-7.08097 36.7739,-12.99871 z m 161.7541,174.70975 c -12.8417,-2.2568 -25.9698,-15.36809 -25.9698,-25.9365 0,-22.29595 21.7,-40.09536 71.4168,-58.57973 17.2751,-6.42267 17.6224,-6.86649 17.6224,-22.50853 0,-25.20934 -5.2099,-34.99833 -18.6266,-34.99833 -12.9727,0 -29.6029,14.17783 -29.6029,25.23775 0,9.93676 -23.4155,26.72578 -37.274,26.72578 -8.3048,0 -3.1035,-22.50408 8.1708,-35.35048 15.5135,-17.67727 35.3796,-27.3544 61.8349,-30.12084 25.557,-2.67243 45.3871,4.72488 52.0835,19.42882 2.4092,5.29069 4.2483,28.73184 4.2809,54.56841 0.059,48.35739 3.4889,61.68261 12.7515,49.56137 2.8864,-3.77692 7.0283,-5.76617 9.2045,-4.42058 6.8058,4.20838 4.3389,16.81029 -5.1495,26.30314 -12.7851,12.7911 -29.2808,12.10523 -43.1746,-1.79524 l -10.9007,-10.90575 -9.6708,8.96651 c -5.3185,4.93157 -15.7276,9.98497 -23.1308,11.22984 -7.4037,1.24483 -15.9651,2.70454 -19.0257,3.24381 -3.0608,0.53928 -9.7388,0.24721 -14.8399,-0.64945 z m 53.2942,-27.23041 c 8.415,-6.62239 9.7752,-10.49568 9.7752,-27.83762 0,-11.07966 -1.1053,-20.14481 -2.4565,-20.14481 -1.3512,0 -9.6818,4.23629 -18.513,9.41405 -15.6186,9.15734 -22.9507,21.88267 -20.2385,35.12613 2.6366,12.87595 17.3921,14.49188 31.4328,3.44225 z m 375.2065,26.02489 c -6.1214,-1.79764 -17.6061,-8.62743 -25.5212,-15.17731 -36.9846,-30.60448 -37.6349,-88.76542 -1.3491,-120.6396 18.1515,-15.9446 36.0171,-21.11961 65.5997,-19.00202 28.6476,2.05067 48.3501,12.95244 63.2946,35.02173 8.0138,11.8344 9.2749,17.80781 9.2749,43.93315 0,26.93928 -1.1385,31.95776 -10.441,46.02147 -18.4592,27.9067 -62.7869,41.02268 -100.8579,29.84258 z m 51.9216,-19.26003 c 7.3402,-6.33885 10.6562,-14.16502 13.7603,-32.47721 5.9408,-35.04254 1.3431,-65.2797 -11.9481,-78.5768 -13.5999,-13.60632 -32.3028,-14.22193 -47.0344,-1.54821 -9.7623,8.39874 -10.4902,11.06385 -11.7131,42.87893 -1.6235,42.24167 1.2068,57.90092 12.5111,69.21004 11.6397,11.64514 31.271,11.87193 44.4242,0.51325 z m 141.70879,18.75917 c -37.09079,-85.8785 -58.38029,-127.83739 -67.06109,-132.16798 -5.3377,-2.66317 -9.7055,-7.25637 -9.7055,-10.20712 0,-4.36788 7.9298,-5.36498 42.6645,-5.36498 35.83939,0 42.66459,0.9093 42.66459,5.684 0,3.1262 -2.5042,6.46671 -5.5649,7.42337 -3.0606,0.95664 -8.071,2.52274 -11.1337,3.48025 -4.6626,1.45751 -3.9837,5.23377 4.1702,23.19801 5.3564,11.8014 13.2883,30.22262 17.6262,40.93604 4.338,10.71344 8.9816,19.48228 10.3189,19.48633 2.7225,0.007 24.8039,-59.29358 27.984,-75.15415 1.8913,-9.43224 1.1468,-10.20713 -9.8051,-10.20713 -10.1685,0 -11.6833,-1.18599 -10.6661,-8.35129 1.1382,-8.01899 2.5137,-8.32174 34.575,-7.60822 25.8351,0.57489 33.6463,1.96757 34.5238,6.15512 0.7197,3.43552 -2.9906,6.31846 -10.1597,7.89381 -6.2115,1.36493 -12.5464,4.44103 -14.0771,6.83573 -1.5308,2.39474 -14.5709,32.74842 -28.9781,67.45263 -23.6161,56.8857 -27.135,63.20971 -35.7403,64.22726 -5.263,0.62237 -10.4829,-1.04273 -11.6356,-3.71168 z m 142.5716,-3.61164 c -30.4647,-15.08648 -46.6304,-54.29492 -37.7155,-91.47417 8.6364,-36.0173 39.3261,-59.83841 77.2953,-59.99613 31.5031,-0.13103 54.0959,14.23606 65.5625,41.69151 11.184,26.77925 12.2659,26.26274 -48.6284,23.21722 l -54.3347,-2.71743 2.5014,15.64923 c 1.376,8.60709 5.0388,20.5585 8.1403,26.55878 12.24,23.68064 45.87,32.30847 72.6634,18.64202 10.4261,-5.31804 14.582,-5.85116 19.2112,-2.46458 5.2051,3.80785 4.4873,5.69813 -6.0412,15.90731 -23.9296,23.20433 -68.414,29.96179 -98.6543,14.98624 z m 58.2572,-101.99979 c 18.4122,-4.93277 -0.6213,-34.70528 -22.1874,-34.70528 -13.5838,0 -29.1002,14.75315 -29.1002,27.66886 0,9.03325 0.9365,9.44572 21.3322,9.39724 11.7327,-0.0296 25.213,-1.09023 29.9554,-2.36082 z m 324.3655,105.59171 c -21.003,-5.52564 -24.8975,-16.50153 -26.3449,-74.24203 l -1.2833,-51.20824 h -8.919 c -13.9087,0 -11.0829,-11.81454 4.883,-20.41425 7.5797,-4.08284 18.8442,-14.41991 25.0323,-22.97121 6.1874,-8.5513 14.1716,-15.64991 17.7425,-15.77465 5.4305,-0.18968 6.4922,3.1422 6.4922,20.37334 v 20.60012 l 17.6225,-1.1138 c 16.6211,-1.05051 17.6223,-0.5864 17.6223,8.1654 0,8.4446 -1.5942,9.38131 -17.7255,10.41468 l -17.7257,1.13551 1.0309,50.82802 c 1.0118,49.89523 1.1876,50.8503 9.5826,52.0409 4.7033,0.66706 10.9639,-0.79014 13.9123,-3.23826 4.1784,-3.46968 6.5977,-3.42393 10.9715,0.20748 14.6301,12.14773 -27.0405,31.99855 -52.8937,25.19693 z m 123.7654,-1.00619 c -18.2645,-6.51281 -41.7267,-29.25513 -47.154,-45.70683 -6.9191,-20.9747 -2.7421,-56.99355 8.5978,-74.13671 26.2021,-39.6125 94.653,-46.30707 130.4171,-12.75495 31.2987,29.3627 32.1936,86.57059 1.8094,115.70154 -21.8436,20.9429 -62.0065,28.18777 -93.6703,16.89695 z m 49.8615,-13.20371 c 13.8508,-7.41604 19.7478,-25.54286 19.8877,-61.13268 0.1891,-47.95132 -10.2621,-64.95441 -39.9241,-64.95441 -9.7583,0 -15.164,2.69288 -22.2004,11.05902 -18.6756,22.2049 -16.5925,93.09122 3.2473,110.49852 10.1446,8.9008 27.1385,10.87504 38.9895,4.52955 z m -1187.39359,8.87385 c 0,-2.72389 5.8432,-7.39509 12.9847,-10.38046 l 12.985,-5.42792 v -40.71433 c 0,-46.3018 -1.2974,-51.7226 -13.4905,-56.36064 -12.5847,-4.78674 -10.809,-12.42497 4.1447,-17.83491 7.1027,-2.56957 17.9497,-9.70954 24.1037,-15.86667 14.635,-14.64164 23.8442,-12.93996 25.3196,4.6785 l 1.1228,13.40704 10.6492,-10.65416 c 18.4119,-18.42058 44.6096,-11.03813 44.6096,12.57103 0,18.9525 -19.3594,27.39012 -36.0342,15.70519 -7.3721,-5.16614 -8.4643,-4.95406 -13.8102,2.68171 -4.3452,6.20639 -5.8052,17.80825 -5.8052,46.13473 0,20.81376 1.0173,40.49462 2.2601,43.73521 1.2695,3.31001 8.5857,6.90402 16.6949,8.20132 10.5432,1.6867 14.4347,4.1022 14.4347,8.95941 0,6.0771 -4.3154,6.62714 -50.0844,6.38375 -39.1491,-0.20822 -50.0845,-1.34763 -50.0845,-5.2188 z m 132.2315,0.55323 c -1.4647,-3.81873 0.9954,-6.21154 7.9504,-7.73337 5.5395,-1.21205 12.1875,-2.85795 14.7732,-3.65756 3.6673,-1.13414 4.4831,-22.07745 3.7099,-95.23104 l -0.9917,-93.77717 -11.0847,-1.91917 c -20.0485,-3.47123 -15.1294,-12.28481 12.0097,-21.51639 13.7746,-4.68567 28.8011,-9.47358 33.3922,-10.63982 l 8.3475,-2.12045 0.056,108.99938 c 0.037,59.94964 1.2885,110.93644 2.7944,113.30403 1.5059,2.36755 7.7263,4.87295 13.8237,5.56752 6.9662,0.79355 11.5439,3.6767 12.3174,7.75829 1.1215,5.9155 -3.0636,6.49546 -46.873,6.49546 -39.1913,0 -48.4979,-1.02466 -50.2259,-5.52971 z m 626.71579,2.23855 c -2.5627,-4.14845 4.8713,-10.3332 14.5799,-12.12992 6.912,-1.27915 7.4907,-4.72708 8.4543,-50.35663 l 1.034,-48.98347 -11.2365,-5.8133 c -15.5803,-8.06059 -14.0422,-14.46732 4.6755,-19.47582 8.7513,-2.34174 20.5234,-8.53406 26.1606,-13.7607 14.8875,-13.80363 20.9966,-12.41582 20.9966,4.76967 v 14.27267 l 20.9279,-10.56099 c 23.0193,-11.61652 39.8303,-13.21159 58.0282,-5.50572 24.6153,10.4234 26.5823,15.7647 28.6328,77.7455 l 1.855,56.07025 9.2557,2.17708 c 5.0904,1.19743 9.8039,5.02684 10.4743,8.50981 1.0925,5.67646 -3.2585,6.33273 -41.9898,6.33273 -39.1467,0 -43.0925,-0.61062 -41.9772,-6.49546 0.7424,-3.9176 5.2675,-6.96155 11.402,-7.66993 l 10.1704,-1.17444 v -49.3606 c 0,-44.92831 -0.7178,-50.27394 -7.9971,-59.53226 -6.784,-8.62835 -9.9509,-9.85448 -20.8735,-8.08122 -7.0815,1.14973 -18.4967,5.91931 -25.3668,10.59905 l -12.4911,8.50859 0.037,38.97264 c 0.037,47.08216 1.8753,55.09217 13.3521,57.97401 5.4085,1.35802 8.8316,4.93901 8.8316,9.2386 0,6.47777 -3.284,7.02102 -42.4452,7.02102 -23.3453,0 -43.3607,-1.48105 -44.4789,-3.29116 z"
       id="Barlovento" /></g></svg>
