<?xml version="1.0" encoding="UTF-8" standalone="no"?>
<!-- Created with Inkscape (http://www.inkscape.org/) -->

<svg
   version="1.1"
   id="svg1"
   width="637.69067"
   height="532.56323"
   viewBox="0 0 637.69067 532.56323"
   xmlns="http://www.w3.org/2000/svg"
   xmlns:svg="http://www.w3.org/2000/svg">
  <defs
     id="defs1" />
  <g
     id="g2"
     transform="matrix(1.000463,0,0,1,-186.11013,-164.61019)">
    <path
       style="display:inline;fill:#000000;fill-opacity:1;stroke-width:1.2065"
       d="m 253.44745,696.50921 c -3.4936,-0.4017 -9.03387,-7.55784 -7.61852,-9.84049 0.50954,-0.82181 50.88765,-1.22652 152.67305,-1.22652 150.8706,0 176.1103,-0.53021 203.06156,-4.26578 6.8858,-0.9544 12.96644,-1.46004 13.51253,-1.12362 0.54609,0.3364 0.32877,2.90625 -0.48293,5.71075 -1.9676,6.79828 -4.34414,7.47798 -32.18525,9.20509 -19.9192,1.23569 -319.41402,2.63827 -328.96044,1.54057 z m 377.89238,-0.13447 c -1.99395,-0.45532 -3.53861,-1.33976 -3.43258,-1.96543 0.10601,-0.62568 0.83593,-6.53626 1.62198,-13.13465 2.812,-23.6046 15.53712,-54.55282 30.72707,-74.73001 17.10624,-22.72265 49.67231,-45.17036 65.531,-45.17036 2.53929,0 2.93569,0.49221 2.61135,3.24253 -0.29845,2.53084 -1.9738,4.16083 -7.63311,7.42647 -18.11261,10.45165 -37.53536,27.4313 -47.99099,41.95444 -10.03075,13.93298 -13.24758,19.143 -18.30229,29.64252 -5.60547,11.64361 -11.92056,32.82783 -13.57948,45.55297 -1.08572,8.32818 -1.88853,8.9317 -9.55295,7.18152 z M 310.49491,671.01565 c -53.17031,-0.47401 -71.34542,-1.00158 -73.31995,-2.12829 -3.57198,-2.03826 -7.78104,-7.54919 -6.87809,-9.00547 0.48079,-0.7754 53.53007,-0.90992 153.15528,-0.38838 159.59534,0.8355 183.33637,0.3759 215.86362,-4.17877 8.97278,-1.25642 18.08151,-2.6481 20.24163,-3.09263 4.47919,-0.92178 4.71226,-0.26439 2.10848,5.94713 -2.56784,6.1258 -5.64397,7.66919 -19.35352,9.71028 -29.03223,4.32235 -87.85103,4.95447 -291.81745,3.13613 z m 225.98117,-23.9476 c 0,-1.86721 13.75884,-9.53417 20.54374,-11.44779 3.65558,-1.03101 12.35646,-2.46501 19.3353,-3.18665 10.07624,-1.04191 38.20378,-6.1637 57.70374,-10.50734 3.80947,-0.84858 3.50793,1.84182 -0.88375,7.88473 -3.0609,4.21176 -4.83307,5.32094 -11.78245,7.37457 -10.52289,3.10963 -24.61551,5.41787 -51.68406,8.46537 -23.42265,2.63702 -33.23252,3.05533 -33.23252,1.41711 z m -286.40394,-1.39918 c -18.94254,-0.43006 -34.55733,-0.87175 -34.69953,-0.98154 -1.30574,-1.00795 -6.38796,-9.53499 -6.38796,-10.71781 0,-1.77639 33.30843,-1.99574 68.96063,-0.45414 l 21.22666,0.91782 6.82038,4.72615 c 3.7512,2.59936 6.66236,5.26817 6.46922,5.93067 -0.42894,1.47135 -16.50878,1.62055 -62.3894,0.57885 z m 114.80326,-0.0735 c -19.80448,-1.04669 -28.13697,-2.92018 -40.91632,-9.19964 -13.90233,-6.83128 -21.07932,-14.18402 -28.47335,-29.17065 -7.39988,-14.99844 -4.66187,-13.81689 -36.35018,-15.68637 -30.78398,-1.81613 -67.18652,-5.02962 -70.39253,-6.21399 -2.33845,-0.86386 -2.71902,-1.8748 -2.71902,-7.22282 v -6.21837 l 6.94862,0.83656 c 26.70483,3.21508 41.19755,4.47813 70.99676,6.18744 18.61021,1.06749 34.59658,2.32604 35.52524,2.79679 0.92867,0.47074 2.40685,3.65373 3.28483,7.07333 5.71461,22.25754 21.23907,37.51564 42.60829,41.87728 11.18391,2.28273 114.80966,3.71388 140.33321,1.93811 22.55977,-1.56957 29.87518,-3.29064 44.10863,-10.37723 8.93544,-4.44883 13.61967,-7.96591 26.2521,-19.711 21.42587,-19.92086 25.16546,-21.62146 62.56937,-28.45378 12.96068,-2.36744 29.81864,-5.61987 37.46212,-7.22759 7.64348,-1.60775 18.41952,-3.52225 23.94677,-4.25445 5.52723,-0.73222 10.82933,-1.62956 11.78244,-1.99412 3.65164,-1.39673 1.55342,3.00664 -2.7988,5.8736 -11.29264,7.43888 -21.17088,10.30966 -65.34064,18.98905 -34.18888,6.71815 -38.94916,8.64489 -54.546,22.07781 -34.87222,30.03399 -47.16622,35.37962 -87.66558,38.11842 -20.47926,1.38492 -90.11919,1.36201 -116.61596,-0.0383 z m -97.28065,-26.4601 c -6.64651,-0.47547 -24.96329,-0.92816 -40.70394,-1.00597 -31.78354,-0.15714 -28.97512,0.64104 -30.63334,-8.70622 -0.57689,-3.25184 -0.31913,-4.52185 1.02183,-5.03476 0.98633,-0.37727 20.11192,-0.36726 42.50132,0.0222 l 40.70799,0.70815 1.19384,3.12208 c 2.32692,6.08524 2.63873,9.95225 0.89139,11.05507 -0.92735,0.5853 -1.95799,0.98314 -2.29031,0.88406 -0.33233,-0.099 -6.04228,-0.56913 -12.68878,-1.04461 z m 307.5519,0.19724 c 0,-1.93675 9.889,-10.00955 15.04776,-12.28414 4.63625,-2.04418 53.13034,-13.59491 63.80396,-15.19735 5.2696,-0.79114 5.50275,-0.19978 1.81268,4.59756 -7.59729,9.87701 -6.24947,9.20073 -28.70081,14.40069 -18.42007,4.26627 -45.92903,9.46005 -50.45301,9.5257 -0.83081,0.0121 -1.51058,-0.45705 -1.51058,-1.04246 z m -196.58787,-2.06814 c -0.84223,-2.18769 -0.69422,-2.96367 6.29532,-33.00376 2.38927,-10.26873 5.64626,-25.84568 7.23775,-34.61543 3.55769,-19.60423 5.32491,-23.49352 8.76408,-19.28785 1.38837,1.69778 -1.93732,25.01562 -8.11795,56.91867 -5.9036,30.47298 -6.14962,31.2493 -10.04473,31.69589 -2.28767,0.26229 -3.58191,-0.27223 -4.13447,-1.70752 z m 19.75057,1.12496 c -1.50153,-1.49667 -0.8155,-6.47763 2.17637,-15.80149 3.00644,-9.36932 7.144,-38.42954 8.66906,-60.88745 0.7619,-11.21962 0.9649,-11.90521 3.84844,-12.99798 6.38501,-2.41977 6.25268,-3.36535 6.25268,44.67949 0,44.27603 -0.0185,44.60588 -2.49635,44.60588 -3.04214,0 -7.30014,-2.1599 -9.12701,-4.62974 -1.16164,-1.57046 -1.56903,-1.41592 -2.89994,1.10015 -2.18442,4.12962 -4.68732,5.66142 -6.42325,3.93109 z m 92.22799,-0.70266 c -0.01,-0.82812 2.70158,-11.26246 6.02483,-23.18744 3.32327,-11.92498 7.43036,-26.83119 9.1269,-33.12493 3.41756,-12.67836 7.53371,-21.90237 10.12664,-22.6931 1.38298,-0.42174 1.54465,0.76685 0.87581,6.43919 -0.83085,7.04633 -15.5183,66.37325 -17.66689,71.36174 -0.8424,1.95588 -2.18358,2.71022 -4.81858,2.71022 -2.10608,0 -3.65866,-0.63719 -3.66871,-1.50568 z m -132.51036,-1.59581 c -0.40166,-1.04332 0.9484,-7.41234 3.00012,-14.15338 2.05173,-6.74103 4.82595,-16.59277 6.16494,-21.89277 1.339,-5.29998 3.81923,-13.68039 5.51162,-18.62309 1.6924,-4.94272 3.60556,-12.26032 4.25146,-16.26133 1.15521,-7.15586 3.30032,-10.28593 7.0492,-10.28593 2.2155,0 1.24177,10.99619 -2.07995,23.48858 -1.23311,4.6375 -3.97325,14.93633 -6.08921,22.88631 -4.72449,17.75065 -9.6729,33.22191 -11.26905,35.23288 -1.67822,2.11436 -5.66637,1.87574 -6.53913,-0.39127 z m 153.87718,-0.11057 c -1.55697,-1.55194 -0.77628,-8.68224 2.20136,-20.1054 3.3243,-12.75313 10.9837,-45.94168 12.77298,-55.34603 1.25798,-6.61181 2.8867,-9.26807 5.68284,-9.26807 2.64246,0 1.36148,10.49898 -5.21729,42.76126 -5.73201,28.10974 -8.44573,38.80749 -10.46545,41.25559 -1.35401,1.6412 -3.70034,1.97262 -4.97444,0.70265 z m 20.45357,-11.063 c -0.39783,-0.6416 -0.45622,-1.89301 -0.12978,-2.78092 0.80726,-2.19566 6.15232,-37.92232 8.42558,-56.3169 1.77695,-14.37865 4.00201,-20.43581 6.86016,-18.6751 1.80553,1.11227 1.14401,19.46784 -1.2721,35.29754 -1.27545,8.35658 -2.91042,19.4637 -3.63325,24.68252 -0.72281,5.2188 -1.99042,10.85494 -2.8169,12.52474 -1.81919,3.6755 -6.4058,6.92594 -7.43371,5.26812 z m 22.70901,-23.59831 c -0.67422,-1.75131 2.81453,-51.70669 3.81703,-54.65591 0.31836,-0.93659 1.90321,-1.42995 3.86934,-1.20454 l 3.33013,0.38173 v 26.30675 c 0,26.19401 -0.0122,26.31662 -2.8529,28.60789 -3.38182,2.72775 -7.22827,2.99349 -8.1636,0.56399 z M 280.59314,564.0845 c -0.54112,-1.15937 -0.78837,-9.31907 -0.54942,-18.13266 l 0.43445,-16.02472 5.03861,0.36566 5.03862,0.36566 0.80047,6.02271 c 1.04261,7.84459 1.21751,25.16739 0.27869,27.60596 -1.06415,2.76414 -9.73093,2.6051 -11.04142,-0.20261 z m 410.20271,-8.94849 c -1.86103,-0.67645 -3.18907,-1.81185 -2.95121,-2.52312 0.23786,-0.71127 8.01427,-6.04908 17.28091,-11.8618 9.26664,-5.81273 19.29557,-12.17541 22.2865,-14.13932 40.06155,-26.30501 60.95129,-39.78975 72.30313,-46.67303 7.53116,-4.56659 15.29207,-9.30818 17.24646,-10.53685 4.11259,-2.58548 7.30523,-1.1153 6.25674,2.88118 -0.73474,2.80057 -4.1965,5.36593 -35.98779,26.66894 -36.4885,24.45059 -62.01987,41.71352 -70.09042,47.39138 -13.80922,9.71515 -19.02083,11.45457 -26.34432,8.79262 z m -58.13219,-23.75753 c -6.35303,-6.48504 -24.83337,-16.41621 -36.40938,-19.56611 -7.91424,-2.1535 -12.96026,-2.62597 -28.35836,-2.65529 -16.5682,-0.0316 -20.12644,0.3369 -30.81561,3.19077 -6.64651,1.77452 -18.27711,6.22965 -25.84578,9.90028 -7.56868,3.67063 -14.02579,6.41016 -14.34917,6.08784 -0.32336,-0.32231 0.54036,-2.49214 1.91938,-4.82183 12.882,-21.76268 16.58227,-50.97339 9.33761,-73.71309 -2.91976,-9.16461 -14.35399,-27.44561 -20.26988,-32.40737 -2.91663,-2.44625 -3.89087,-2.66382 -7.03529,-1.57121 -10.13591,3.52194 -16.59143,-8.0052 -7.1954,-12.84833 3.24227,-1.67122 3.68288,-1.59577 7.01853,1.20191 3.77092,3.16274 21.54741,7.34236 53.39886,12.55516 8.30813,1.3597 19.72803,3.2626 25.37756,4.22865 5.64954,0.96605 20.81402,3.42737 33.69885,5.4696 12.88484,2.04223 24.07488,4.10539 24.86676,4.58481 0.79189,0.47941 4.16324,3.89567 7.4919,7.59166 12.5053,13.88535 18.08096,35.92813 17.01696,67.27466 -0.56792,16.73084 -2.52113,30.19829 -4.37975,30.19829 -0.47468,0 -2.9352,-2.1152 -5.46779,-4.7004 z m -275.0055,-13.66886 c 7.20541,-14.88102 10.37625,-30.15348 9.05398,-43.60872 -1.71671,-17.46908 -10.46731,-37.02208 -20.82925,-46.54247 -4.53845,-4.16985 -5.81468,-4.70655 -11.19187,-4.70655 -4.45801,0 -6.71091,-0.63957 -8.48619,-2.40909 -2.74141,-2.73253 -2.94311,-3.99651 -1.16594,-7.30644 1.51724,-2.82579 4.87355,-2.97227 9.80945,-0.42808 2.02931,1.046 10.56723,3.23058 18.97315,4.85464 12.30978,2.37828 96.73253,15.79119 119.89301,19.04837 l 5.51617,0.77576 5.87739,17.12442 c 6.86048,19.98868 7.9894,29.94154 4.99438,44.03132 -1.84358,8.67294 -9.33146,25.49666 -12.52319,28.13697 -1.23583,1.02234 -4.2559,0.0168 -12.75088,-4.24549 -17.34588,-8.70313 -39.82781,-12.07088 -62.00581,-9.28836 -15.2703,1.91587 -25.27685,5.01748 -37.4655,11.61278 -14.40609,7.79516 -14.73891,7.49042 -7.6989,-7.04906 z m -32.66178,5.02906 c -9.49297,-6.6859 -18.60402,-8.7262 -39.27481,-8.79507 -18.76594,-0.0625 -29.49028,2.15972 -43.40089,8.99341 -3.93098,1.93111 -7.36986,3.28922 -7.64195,3.01799 -0.2721,-0.27122 0.347,-2.11558 1.37578,-4.09858 4.06024,-7.82618 9.19227,-23.88194 9.8575,-30.83948 1.61316,-16.87183 -10.58093,-44.68342 -20.70175,-47.21536 -1.67082,-0.41799 -2.83571,-1.37286 -2.58864,-2.12191 0.82976,-2.51571 10.98008,-2.08198 35.90971,1.53445 59.31941,8.6052 68.37475,10.00963 70.04872,10.86418 2.43962,1.24542 7.0055,9.88647 10.55026,19.96664 3.60405,10.24882 4.94795,27.20785 2.90753,36.69114 -1.45208,6.74888 -7.0547,16.99188 -9.18651,16.79522 -0.66465,-0.0613 -4.19938,-2.21799 -7.85495,-4.79263 z m 401.65289,-19.70786 c -12.65944,-13.40501 -30.608,-18.84133 -51.76535,-15.67887 l -5.84577,0.87379 0.80582,-4.01607 c 1.98651,-9.90037 6.11491,-11.47251 29.31855,-11.16478 15.99095,0.21207 19.13006,1.46087 24.33807,9.68211 4.44405,7.01527 9.10409,19.58328 8.5478,23.05313 -0.3625,2.2611 -0.94986,1.96201 -5.39912,-2.74931 z m 35.20375,-26.72429 c -8.99341,-6.29695 -22.86785,-13.00809 -34.44097,-16.65925 -8.83268,-2.78659 -12.29671,-3.23343 -24.72356,-3.18917 -15.61743,0.0556 -16.29817,-0.21491 -16.36575,-6.50401 -0.0214,-1.9875 -1.95671,-8.22101 -4.30078,-13.85225 -2.34406,-5.63123 -6.18676,-15.63049 -8.53932,-22.22056 -5.14165,-14.40296 -7.79505,-19.74931 -17.14057,-34.53676 -7.44325,-11.77749 -14.73037,-25.39476 -14.73037,-27.52632 0,-0.6814 0.45397,-1.2389 1.0088,-1.2389 0.55483,0 11.56688,9.11972 24.47123,20.26603 26.6192,22.99273 63.97159,58.82437 79.95491,76.69966 15.02324,16.80158 25.92237,33.36373 21.75501,33.05856 -0.4985,-0.0365 -3.62537,-1.97016 -6.94863,-4.29703 z m 32.70599,-22.4584 C 783.6795,442.73097 738.92434,395.45069 710.48807,365.03383 700.26862,354.1026 687.24538,340.28048 681.54753,334.31798 665.01372,317.01627 633.69796,282.94984 629.62983,277.84 c -4.08164,-5.12682 -5.10534,-11.57867 -1.83715,-11.57867 2.25735,0 25.49744,23.24341 58.23599,58.24433 13.10374,14.00926 36.63528,39.02249 52.29229,55.58495 44.33098,46.89464 67.63444,71.92182 70.92856,76.17503 3.56526,4.60332 2.91797,7.54069 -1.66169,7.54069 -2.52171,0 -5.54444,-2.31033 -13.02882,-9.9582 z m -512.79436,-19.9619 c -1.17289,-0.74196 -1.46098,-5.97804 -1.20846,-21.96446 l 0.33156,-20.99027 5.13594,-0.3704 5.13593,-0.37039 v 22.35329 22.35331 l -3.92747,-0.0184 c -2.16012,-0.01 -4.6205,-0.45684 -5.4675,-0.99264 z m 129.88297,-19.1297 c -3.32695,-0.49936 -3.37322,-0.62115 -3.02115,-7.95019 l 0.35756,-7.44305 h 4.83382 4.83382 l 0.3681,7.11553 c 0.25229,4.87715 -0.12785,7.42907 -1.20845,8.11222 -0.8671,0.54818 -1.84846,0.92378 -2.18079,0.83467 -0.33232,-0.0892 -2.12464,-0.39025 -3.98291,-0.66918 z m 147.18488,-7.48854 c -3.51404,-0.6711 -3.63638,-0.92214 -3.98417,-8.17616 -0.33961,-7.08346 -0.19928,-7.52371 2.62344,-8.22987 6.25262,-1.56422 7.37469,-0.49116 7.75781,7.41895 0.40415,8.34388 -0.8128,10.05355 -6.39708,8.98708 z m 61.20557,-6.05662 c -4.409,-5.46866 -22.92158,-16.9454 -33.06709,-20.49972 -22.79669,-7.98644 -51.52396,-5.70119 -77.07349,6.1312 -6.00557,2.78127 -11.22383,4.75323 -11.59613,4.38213 -0.3723,-0.37108 0.6914,-2.75711 2.36377,-5.30226 6.65024,-10.12091 11.64184,-29.41369 11.64184,-44.99631 0,-15.4404 -7.81458,-35.57973 -17.8995,-46.12969 -2.92109,-3.05578 -3.77754,-3.3107 -8.80671,-2.62125 -6.33808,0.86888 -9.94983,-1.41548 -9.30965,-5.8882 0.47864,-3.34397 4.48122,-3.17233 22.11862,0.94849 24.72052,5.77572 44.6318,10.27055 64.65237,14.59481 10.96673,2.3687 22.93045,5.04776 26.58602,5.95345 3.65558,0.90568 9.65898,2.24718 13.34089,2.98112 l 6.69437,1.33438 5.0415,9.9047 c 7.64315,15.01598 12.38536,38.96106 12.38536,62.538 0,17.02686 -0.48299,21.44607 -2.34394,21.44607 -0.48231,0 -2.61,-2.14963 -4.72823,-4.77692 z M 358.91319,391.8349 c 6.41545,-12.58639 10.04403,-34.0358 8.25238,-48.7818 -1.72358,-14.18579 -11.99399,-34.07547 -19.72507,-38.19962 -2.42675,-1.29455 -3.74967,-1.347 -6.17651,-0.24483 -4.71676,2.14215 -7.56179,1.69302 -9.67914,-1.52799 -1.49854,-2.27967 -1.62949,-3.48363 -0.58957,-5.42045 1.65879,-3.08942 4.95246,-3.14379 12.73215,-0.2102 8.6464,3.26042 79.50317,19.18684 108.15677,24.31033 3.65558,0.65364 7.81397,1.67675 9.24085,2.27356 5.79696,2.42466 17.4917,31.4127 19.57674,48.52535 1.38426,11.36108 0.40781,13.89981 -5.7219,14.87681 -4.53148,0.72227 -6.4298,1.67301 -13.91683,6.96995 -3.19685,2.26172 -3.23581,2.25634 -10.72539,-1.48411 -10.50618,-5.24698 -19.93263,-7.47713 -34.95228,-8.26914 -17.42995,-0.91911 -35.82707,3.02789 -52.11007,11.1799 -3.21707,1.61059 -6.30895,2.92836 -6.87084,2.92836 -0.5619,0 0.56702,-3.11675 2.50871,-6.92612 z m -40.56332,-6.99698 c -1.81872,-0.72683 -23.53761,-3.99556 -39.51616,-5.94725 -36.03347,-4.40128 -42.05458,-6.14165 -42.05458,-12.15554 0,-2.72171 3.66588,-4.97206 5.87885,-3.60879 0.58665,0.3614 11.60356,2.01485 24.48203,3.67435 48.35174,6.2305 60.27328,8.85111 60.27328,13.24939 0,3.10291 -5.7194,6.12424 -9.06342,4.78784 z m -36.10173,-28.85881 c -1.71764,-1.71208 -1.96461,-6.08126 -1.96461,-34.75623 0,-34.55442 0.17583,-35.68888 5.53178,-35.68888 5.19309,0 5.39918,1.52646 5.06128,37.48717 l -0.32119,34.18314 -3.17133,0.36652 c -1.75435,0.20277 -4.04914,-0.50842 -5.13593,-1.59172 z m -57.14029,-28.83078 c -4.42154,-1.91739 -13.70628,-13.04522 -13.70628,-16.42709 0,-2.82051 -0.21041,-2.82328 6.21243,0.0816 9.7389,4.40484 20.7592,2.59102 32.45443,-5.34162 5.69837,-3.86509 7.32454,-4.41454 11.43794,-3.8646 6.94812,0.92892 8.10462,3.18843 7.17377,14.01568 -0.42884,4.98808 -1.1204,9.40107 -1.53678,9.80665 -0.4164,0.40557 -4.69705,0.17036 -9.51258,-0.52271 -7.8277,-1.1266 -9.62048,-0.97951 -16.91837,1.38799 -9.39805,3.0488 -10.43401,3.10617 -15.60456,0.86398 z m 184.77658,-27.34642 c -1.92344,-1.91721 -1.96426,-13.32794 -0.0545,-15.23154 1.97116,-1.96478 6.39843,-1.82338 8.13288,0.25974 0.83738,1.0057 1.26986,4.58798 1.05431,8.73294 -0.35547,6.83556 -0.46477,7.03746 -3.99678,7.38318 -1.99722,0.19549 -4.30839,-0.31946 -5.13593,-1.14432 z m 43.3799,-9.87764 c -11.96357,-12.15051 -28.90715,-18.96444 -47.33619,-19.0364 -11.38447,-0.0444 -17.55166,1.39043 -32.2453,7.50239 -5.14973,2.14207 -5.83566,1.09753 -2.96387,-4.51345 3.5489,-6.93387 5.33802,-18.01282 4.85656,-30.07354 -0.57611,-14.43127 -5.17398,-24.08422 -17.0353,-35.76452 -4.59891,-4.52873 -8.15377,-8.44127 -7.89969,-8.69453 0.25409,-0.25326 5.87204,0.90276 12.48436,2.56895 62.34354,15.70947 76.20547,20.25271 82.94399,27.18484 5.41753,5.5732 11.15819,17.21954 13.62082,27.63321 2.6069,11.02367 2.27789,38.43913 -0.46128,38.43913 -0.43931,0 -3.12314,-2.36073 -5.9641,-5.24608 z m 103.75549,-2.83687 c -2.89655,-1.13466 -3.58715,-2.96061 -3.60686,-9.53657 -0.0223,-7.45895 2.06236,-9.88689 7.00232,-8.15522 3.10914,1.08988 3.25105,1.50642 3.25105,9.54241 0,7.52367 -0.25287,8.42669 -2.41691,8.63112 -1.3293,0.12559 -3.23262,-0.0912 -4.2296,-0.48174 z m 41.94464,-8.76591 c -7.28649,-10.26712 -19.76504,-17.67429 -35.76944,-21.23245 -14.06836,-3.12773 -27.05305,-1.13439 -44.5219,6.83478 -4.80675,2.19281 -9.03511,3.69234 -9.39634,3.33227 -0.36124,-0.36007 1.31045,-4.11896 3.71486,-8.35311 7.62193,-13.42217 9.80418,-32.48481 5.25853,-45.9347 -5.1415,-15.2129 -12.60905,-24.02326 -21.57274,-25.45198 -3.92179,-0.6251 -4.98971,-1.28124 -4.6815,-2.87643 0.2196,-1.13664 1.2967,-2.23888 2.39353,-2.44942 2.90043,-0.55676 71.00619,16.96446 83.60457,21.50851 l 10.70235,3.86019 5.56459,8.57273 c 3.06051,4.71499 7.13589,13.1801 9.05637,18.81133 3.03825,8.90875 3.49638,12.03831 3.52713,24.09446 0.04,15.69422 -1.04397,24.09925 -3.10322,24.06154 -0.77238,-0.0142 -2.92195,-2.16412 -4.77679,-4.77772 z M 413.21363,201.45785 c -5.06721,-0.79279 -6.04228,-2.46898 -6.04228,-10.38702 0,-7.94354 1.27879,-10.33204 5.53178,-10.33204 3.93356,0 5.33261,2.518 6.13037,11.03339 0.80169,8.55721 -0.33302,10.51284 -5.61987,9.68567 z m 143.80619,-16.97454 c -2.80204,-0.77306 -3.04751,-1.43928 -3.3847,-9.18651 -0.28973,-6.65689 0.0408,-8.64776 1.62803,-9.80458 2.27336,-1.65694 5.29169,-0.93511 7.49684,1.79288 1.92786,2.38494 1.97287,14.92015 0.0605,16.8264 -1.58435,1.57922 -1.45439,1.57091 -5.8006,0.37181 z"
       id="path4" />
  </g>
</svg>
