<?xml version="1.0" encoding="UTF-8" standalone="no"?>
<!-- Created with Inkscape (http://www.inkscape.org/) -->

<svg
   version="1.1"
   id="svg1"
   width="108.08405"
   height="121.56948"
   viewBox="0 0 108.08404 121.56948"
   xml:space="preserve"
   xmlns="http://www.w3.org/2000/svg"
   xmlns:svg="http://www.w3.org/2000/svg"><defs
     id="defs1" /><g
     id="Logo"
     transform="matrix(0.31380256,0,0,0.31365731,-10.906462,-33.224667)"><path
       style="fill:#241c1c;fill-opacity:1;stroke-width:3.71082"
       d="m 93.93141,488.95731 c -38.367,-10.35255 -59.1756,-33.98801 -59.1756,-67.21512 0,-33.26621 30.2741,-74.22854 61.857,-83.6954 13.4103,-4.01971 14.7937,-5.80233 21.0848,-27.16724 7.8765,-26.75068 33.3658,-79.37441 50.8943,-105.07375 6.7551,-9.90382 22.1611,-28.36226 34.2364,-41.01882 l 21.9543,-23.01195 -14.3219,3.88617 c -35.9306,9.74962 -83.4457,43.886 -105.2809,75.63738 -6.1026,8.87415 -13.2899,24.7117 -15.9713,35.1946 -4.2964,16.79509 -5.4727,18.34009 -9.9005,13.00249 -8.8633,-10.68484 -9.2039,-43.26024 -0.6545,-62.59685 16.8766,-38.17028 62.7195,-74.0666 117.4854,-91.9945 33.913,-11.10164 96.4341,-12.06853 129.2913,-1.99947 31.0042,9.50111 50.7386,28.69072 53.3512,51.87789 4.1696,37.0096 -23.901,75.78135 -72.463,100.08716 l -25.5546,12.79021 12.0917,4.37445 c 30.0683,10.8779 46.4311,43.89552 38.9796,78.65599 -12.4722,58.18329 -71.3596,111.03305 -142.3883,127.78929 -27.6189,6.5156 -72.3095,6.739 -95.5154,0.47747 z m 69.8987,-43.34055 c 38.7076,-8.93272 74.1868,-36.09194 89.3732,-68.41456 11.6911,-24.88369 10.7889,-53.58669 -2.1693,-68.99358 -12.3864,-14.72761 -29.1989,-22.05016 -50.6255,-22.05016 -16.2784,0 -16.3977,0.0957 -20.5237,16.49032 -2.283,9.06969 -4.1508,20.89416 -4.1508,26.27667 0,9.04517 -0.913,9.60965 -12.0573,7.45296 -11.4063,-2.2074 -11.2365,-1.94609 3.1465,4.83881 13.3219,6.28431 23.0031,17.44849 18.7878,21.66575 -0.7854,0.78566 -6.2332,-0.39933 -12.1064,-2.63331 -20.9714,-7.97707 -59.5267,6.56863 -72.1016,27.2018 -18.2521,29.9488 1.0359,60.34409 39.0863,61.59543 4.081,0.13438 14.5846,-1.40935 23.3408,-3.43013 z m 76.4576,-188.43328 c 27.6024,-12.92285 48.0796,-30.19042 62.2357,-52.4808 19.8214,-31.21171 11.3582,-55.18608 -22.1383,-62.71395 l -15.9233,-3.57846 -18.11,25.79999 c -17.9723,25.60306 -48.7082,82.21442 -53.9158,99.30497 -2.5982,8.52596 -2.1257,8.81053 11.0778,6.66696 7.5854,-1.23154 24.1336,-7.08097 36.7739,-12.99871 z"
       id="Barlovento" /></g></svg>
